<svg width="121" height="40" viewBox="0 0 121 40" fill="none" xmlns="http://www.w3.org/2000/svg">
<g clip-path="url(#clip0_1_376)">
<path d="M9.75485 0.609375C6.98547 0.609375 5.81217 0.835951 4.59809 1.48525C3.54448 2.04872 2.7206 2.87261 2.15712 3.92621C1.50783 5.14029 1.28125 6.3136 1.28125 9.08297V30.1358C1.28125 32.9052 1.50783 34.0785 2.15712 35.2925C2.7206 36.3461 3.54448 37.17 4.59809 37.7335C5.81217 38.3828 6.98547 38.6094 9.75485 38.6094H111.808C114.577 38.6094 115.75 38.3828 116.964 37.7335C118.018 37.17 118.842 36.3461 119.405 35.2925C120.055 34.0785 120.281 32.9052 120.281 30.1358V9.08297C120.281 6.3136 120.055 5.14029 119.405 3.92621C118.842 2.87261 118.018 2.04872 116.964 1.48525C115.75 0.835951 114.577 0.609375 111.808 0.609375H9.75485Z" fill="black" stroke="#A5A5A5"/>
<path d="M26.5887 19.2852C26.6136 17.355 27.6255 15.5721 29.2699 14.5611C28.2278 13.0728 26.5449 12.163 24.7289 12.1062C22.8183 11.9056 20.9661 13.2494 19.9925 13.2494C19.0001 13.2494 17.501 12.1261 15.8869 12.1593C13.763 12.2279 11.831 13.4062 10.7977 15.263C8.59728 19.0727 10.2386 24.6717 12.3465 27.7512C13.401 29.2591 14.6336 30.9435 16.2463 30.8838C17.8244 30.8183 18.4139 29.8775 20.3188 29.8775C22.2061 29.8775 22.7591 30.8838 24.4045 30.8458C26.098 30.8183 27.1649 29.3312 28.1825 27.809C28.9402 26.7345 29.5233 25.547 29.9101 24.2904C27.8988 23.4397 26.591 21.469 26.5887 19.2852ZM23.4807 10.0809C24.4041 8.97246 24.859 7.54778 24.7488 6.10938C23.3382 6.25754 22.0351 6.93173 21.0993 7.99762C20.1753 9.04927 19.7071 10.4251 19.798 11.8221C21.2276 11.8368 22.5849 11.1951 23.4807 10.0809Z" fill="white"/>
<path d="M38.5325 8.62036H40.6948C42.4712 8.62036 43.5129 9.71191 43.5129 11.5962C43.5129 13.5095 42.4795 14.6094 40.6948 14.6094H38.5325V8.62036ZM39.4622 9.46704V13.7627H40.5911C41.8445 13.7627 42.5667 12.9824 42.5667 11.6086C42.5667 10.2556 41.832 9.46704 40.5911 9.46704H39.4622ZM46.6259 14.6965C45.3019 14.6965 44.4926 13.8125 44.4926 12.3474C44.4926 10.8906 45.306 10.0024 46.6259 10.0024C47.9415 10.0024 48.755 10.8906 48.755 12.3474C48.755 13.8125 47.9457 14.6965 46.6259 14.6965ZM46.6259 13.9038C47.3978 13.9038 47.8378 13.3311 47.8378 12.3474C47.8378 11.3679 47.3978 10.7952 46.6259 10.7952C45.8497 10.7952 45.414 11.3679 45.414 12.3474C45.414 13.3352 45.8497 13.9038 46.6259 13.9038ZM55.5908 10.0896L54.3499 14.6094H53.4243L52.4905 11.2808H52.4199L51.4903 14.6094H50.573L49.3279 10.0896H50.2327L51.042 13.5386H51.1084L52.0381 10.0896H52.8931L53.8228 13.5386H53.8933L54.6985 10.0896H55.5908ZM56.5663 14.6094V10.0896H57.4255V10.8076H57.4919C57.7118 10.3054 58.1601 10.0024 58.8407 10.0024C59.8493 10.0024 60.4054 10.6084 60.4054 11.6833V14.6094H59.5131V11.9075C59.5131 11.1812 59.1977 10.8201 58.5378 10.8201C57.8778 10.8201 57.4587 11.26 57.4587 11.9656V14.6094H56.5663ZM61.7544 14.6094V8.32568H62.6468V14.6094H61.7544ZM65.9465 14.6965C64.6225 14.6965 63.8132 13.8125 63.8132 12.3474C63.8132 10.8906 64.6267 10.0024 65.9465 10.0024C67.2622 10.0024 68.0756 10.8906 68.0756 12.3474C68.0756 13.8125 67.2663 14.6965 65.9465 14.6965ZM65.9465 13.9038C66.7185 13.9038 67.1584 13.3311 67.1584 12.3474C67.1584 11.3679 66.7185 10.7952 65.9465 10.7952C65.1704 10.7952 64.7346 11.3679 64.7346 12.3474C64.7346 13.3352 65.1704 13.9038 65.9465 13.9038ZM70.6781 13.9329C71.3504 13.9329 71.8485 13.5054 71.8485 12.9451V12.5674L70.7445 12.6379C70.1219 12.6794 69.8397 12.8911 69.8397 13.2896C69.8397 13.6963 70.1925 13.9329 70.6781 13.9329ZM70.4498 14.6841C69.5782 14.6841 68.9432 14.157 68.9432 13.3311C68.9432 12.5176 69.5492 12.0486 70.6241 11.9822L71.8485 11.9116V11.5215C71.8485 11.0442 71.533 10.7744 70.9229 10.7744C70.4249 10.7744 70.0804 10.957 69.9808 11.2766H69.1175C69.2088 10.5005 69.9393 10.0024 70.9644 10.0024C72.0975 10.0024 72.7367 10.5669 72.7367 11.5215V14.6094H71.8775V13.9744H71.807C71.5372 14.4268 71.0433 14.6841 70.4498 14.6841ZM75.7126 14.6841C74.563 14.6841 73.8366 13.7793 73.8366 12.3474C73.8366 10.9197 74.5713 10.0149 75.7126 10.0149C76.331 10.0149 76.854 10.3096 77.0989 10.8076H77.1653V8.32568H78.0576V14.6094H77.2026V13.8955H77.1321C76.8623 14.3894 76.3352 14.6841 75.7126 14.6841ZM75.9658 10.8159C75.2146 10.8159 74.758 11.397 74.758 12.3474C74.758 13.3062 75.2104 13.8831 75.9658 13.8831C76.717 13.8831 77.1819 13.2979 77.1819 12.3516C77.1819 11.4094 76.7129 10.8159 75.9658 10.8159ZM83.7356 14.6965C82.4116 14.6965 81.6023 13.8125 81.6023 12.3474C81.6023 10.8906 82.4158 10.0024 83.7356 10.0024C85.0513 10.0024 85.8647 10.8906 85.8647 12.3474C85.8647 13.8125 85.0554 14.6965 83.7356 14.6965ZM83.7356 13.9038C84.5076 13.9038 84.9475 13.3311 84.9475 12.3474C84.9475 11.3679 84.5076 10.7952 83.7356 10.7952C82.9595 10.7952 82.5237 11.3679 82.5237 12.3474C82.5237 13.3352 82.9595 13.9038 83.7356 13.9038ZM86.9896 14.6094V10.0896H87.8488V10.8076H87.9152C88.1351 10.3054 88.5834 10.0024 89.2641 10.0024C90.2726 10.0024 90.8288 10.6084 90.8288 11.6833V14.6094H89.9364V11.9075C89.9364 11.1812 89.621 10.8201 88.9611 10.8201C88.3012 10.8201 87.882 11.26 87.882 11.9656V14.6094H86.9896ZM94.83 8.96484H95.7223V10.1104H96.7018V10.8616H95.7223V13.1858C95.7223 13.6589 95.9174 13.8665 96.3615 13.8665C96.4985 13.8665 96.5773 13.8582 96.7018 13.8457V14.5886C96.5566 14.6135 96.3905 14.6343 96.2162 14.6343C95.2243 14.6343 94.83 14.2856 94.83 13.4141V10.8616H94.112V10.1104H94.83V8.96484ZM97.8475 14.6094V8.32568H98.7315V10.8159H98.8021C99.022 10.3096 99.4993 10.0066 100.18 10.0066C101.143 10.0066 101.736 10.6167 101.736 11.6917V14.6094H100.844V11.9116C100.844 11.1895 100.508 10.8242 99.877 10.8242C99.1465 10.8242 98.7398 11.2849 98.7398 11.9697V14.6094H97.8475ZM104.899 10.762C104.239 10.762 103.779 11.2268 103.729 11.9324H106.011C105.991 11.2227 105.559 10.762 104.899 10.762ZM106.007 13.3892H106.866C106.663 14.1985 105.941 14.6965 104.907 14.6965C103.612 14.6965 102.82 13.8083 102.82 12.364C102.82 10.9197 103.629 10.0024 104.903 10.0024C106.161 10.0024 106.92 10.8616 106.92 12.281V12.5923H103.729V12.6421C103.758 13.4348 104.218 13.937 104.932 13.937C105.472 13.937 105.841 13.7419 106.007 13.3892ZM46.0366 30.1094L44.9409 26.9302H40.3755L39.2715 30.1094H37.3623L41.687 18.1313H43.6875L48.0122 30.1094H46.0366ZM42.5918 20.3062L40.8486 25.3696H44.4678L42.7329 20.3062H42.5918ZM53.6681 20.9204C55.9674 20.9204 57.4201 22.7134 57.4201 25.5854C57.4201 28.4575 55.9674 30.2588 53.6847 30.2588C52.3981 30.2588 51.3771 29.6943 50.904 28.7397H50.7629V33.1143H48.9782V21.0698H50.6964V22.564H50.8293C51.3771 21.5347 52.4396 20.9204 53.6681 20.9204ZM53.1618 28.6567C54.6808 28.6567 55.5856 27.5029 55.5856 25.5854C55.5856 23.6763 54.6808 22.5225 53.1701 22.5225C51.6676 22.5225 50.7296 23.7012 50.7296 25.5938C50.7296 27.478 51.6676 28.6567 53.1618 28.6567ZM63.3416 20.9204C65.6409 20.9204 67.0936 22.7134 67.0936 25.5854C67.0936 28.4575 65.6409 30.2588 63.3582 30.2588C62.0716 30.2588 61.0506 29.6943 60.5775 28.7397H60.4363V33.1143H58.6517V21.0698H60.3699V22.564H60.5028C61.0506 21.5347 62.1131 20.9204 63.3416 20.9204ZM62.8353 28.6567C64.3543 28.6567 65.2591 27.5029 65.2591 25.5854C65.2591 23.6763 64.3543 22.5225 62.8436 22.5225C61.3411 22.5225 60.4031 23.7012 60.4031 25.5938C60.4031 27.478 61.3411 28.6567 62.8353 28.6567ZM71.7067 26.8887H73.5495C73.7072 28.0259 74.8195 28.748 76.4215 28.748C77.9157 28.748 79.0114 27.9761 79.0114 26.9136C79.0114 26.0005 78.3141 25.4526 76.7287 25.0791L75.1847 24.7056C73.0182 24.1992 72.0304 23.1533 72.0304 21.3936C72.0304 19.2603 73.7736 17.8408 76.3883 17.8408C78.8204 17.8408 80.5968 19.2603 80.7047 21.2773H78.8952C78.7208 20.1733 77.7579 19.4844 76.3634 19.4844C74.8942 19.4844 73.9147 20.1899 73.9147 21.269C73.9147 22.124 74.5455 22.6138 76.1061 22.979L77.4259 23.3027C79.8829 23.8755 80.8956 24.8716 80.8956 26.6729C80.8956 28.9639 79.1193 30.3999 76.2804 30.3999C73.6242 30.3999 71.8395 29.0303 71.7067 26.8887ZM82.8494 18.8203H84.6341V21.1113H86.5931V22.6138H84.6341V27.2622C84.6341 28.2085 85.0242 28.6235 85.9124 28.6235C86.1863 28.6235 86.344 28.6069 86.5931 28.582V30.0679C86.3025 30.1177 85.9705 30.1592 85.6219 30.1592C83.638 30.1592 82.8494 29.4619 82.8494 27.7188V22.6138H81.4134V21.1113H82.8494V18.8203ZM91.5019 30.2837C88.854 30.2837 87.2353 28.5156 87.2353 25.5854C87.2353 22.6719 88.8623 20.8955 91.5019 20.8955C94.1333 20.8955 95.7602 22.6719 95.7602 25.5854C95.7602 28.5156 94.1416 30.2837 91.5019 30.2837ZM91.5019 28.6982C93.0459 28.6982 93.9257 27.5527 93.9257 25.5854C93.9257 23.6265 93.0459 22.481 91.5019 22.481C89.9497 22.481 89.0781 23.6265 89.0781 25.5854C89.0781 27.561 89.9497 28.6982 91.5019 28.6982ZM96.9918 30.1094V21.0698H98.7101V22.4561H98.8429C99.1002 21.5679 100.105 20.9204 101.283 20.9204C101.549 20.9204 101.889 20.9453 102.08 20.9951V22.7549C101.931 22.7051 101.4 22.647 101.084 22.647C99.7311 22.647 98.7765 23.502 98.7765 24.772V30.1094H96.9918ZM106.366 22.4146C105.047 22.4146 104.125 23.3442 104.026 24.7554H108.591C108.55 23.3359 107.686 22.4146 106.366 22.4146ZM108.583 27.6689H110.301C109.894 29.2876 108.45 30.2837 106.383 30.2837C103.793 30.2837 102.208 28.5073 102.208 25.6187C102.208 22.73 103.826 20.8955 106.375 20.8955C108.89 20.8955 110.409 22.6138 110.409 25.4526V26.0752H104.026V26.1748C104.084 27.7603 105.005 28.7646 106.433 28.7646C107.512 28.7646 108.251 28.3745 108.583 27.6689Z" fill="white"/>
</g>
<defs>
<clipPath id="clip0_1_376">
<rect width="120" height="39" fill="white" transform="translate(0.78125 0.109375)"/>
</clipPath>
</defs>
</svg>
