<svg width="16" height="17" viewBox="0 0 16 17" fill="none" xmlns="http://www.w3.org/2000/svg">
<path d="M14 7.01562H3.33333C2.59695 7.01562 2 7.61258 2 8.34896V15.0156C2 15.752 2.59695 16.349 3.33333 16.349H14C14.7364 16.349 15.3333 15.752 15.3333 15.0156V8.34896C15.3333 7.61258 14.7364 7.01562 14 7.01562Z" stroke="white" stroke-width="1.33333"/>
<path d="M10.6666 14.0156V3.34896C10.6666 2.99534 10.5262 2.6562 10.2761 2.40615C10.0261 2.1561 9.68694 2.01563 9.33331 2.01562H6.66665C6.31302 2.01563 5.97389 2.1561 5.72384 2.40615C5.47379 2.6562 5.33331 2.99534 5.33331 3.34896V14.0156" stroke="white" stroke-width="1.33333"/>
</svg>
