<svg width="16" height="17" viewBox="0 0 16 17" fill="none" xmlns="http://www.w3.org/2000/svg">
<g clip-path="url(#clip0_1_144)">
<path d="M5.99998 14.6823C6.36817 14.6823 6.66665 14.3838 6.66665 14.0156C6.66665 13.6474 6.36817 13.3489 5.99998 13.3489C5.63179 13.3489 5.33331 13.6474 5.33331 14.0156C5.33331 14.3838 5.63179 14.6823 5.99998 14.6823Z" stroke="#fff" stroke-width="1.33333"/>
<path d="M13.3334 14.6823C13.7015 14.6823 14 14.3838 14 14.0156C14 13.6474 13.7015 13.3489 13.3334 13.3489C12.9652 13.3489 12.6667 13.6474 12.6667 14.0156C12.6667 14.3838 12.9652 14.6823 13.3334 14.6823Z" stroke="#fff" stroke-width="1.33333"/>
<path d="M0.666687 0.682312H3.33335L5.12002 9.60898C5.18098 9.91591 5.34796 10.1916 5.59172 10.3878C5.83548 10.5841 6.14049 10.6883 6.45335 10.6823H12.9334C13.2462 10.6883 13.5512 10.5841 13.795 10.3878C14.0387 10.1916 14.2057 9.91591 14.2667 9.60898L15.3334 4.01565H4.00002" stroke="#fff" stroke-width="1.33333"/>
</g>
<defs>
<clipPath id="clip0_1_144">
<rect width="16" height="16" fill="white" transform="translate(0 0.015625)"/>
</clipPath>
</defs>
</svg>
