<svg width="51" height="51" viewBox="0 0 51 51" fill="none" xmlns="http://www.w3.org/2000/svg">
<g filter="url(#filter0_d_1_358)">
<rect x="4.3125" y="1.10938" width="42" height="42" rx="21" fill="#3E5EA1"/>
<path d="M37.5 22C37.5 15.1 31.9 9.5 25 9.5C18.1 9.5 12.5 15.1 12.5 22C12.5 28.05 16.8 33.0875 22.5 34.25V25.75H20V22H22.5V18.875C22.5 16.4625 24.4625 14.5 26.875 14.5H30V18.25H27.5C26.8125 18.25 26.25 18.8125 26.25 19.5V22H30V25.75H26.25V34.4375C32.5625 33.8125 37.5 28.4875 37.5 22Z" fill="white"/>
</g>
<defs>
<filter id="filter0_d_1_358" x="0.3125" y="0.109375" width="50" height="50" filterUnits="userSpaceOnUse" color-interpolation-filters="sRGB">
<feFlood flood-opacity="0" result="BackgroundImageFix"/>
<feColorMatrix in="SourceAlpha" type="matrix" values="0 0 0 0 0 0 0 0 0 0 0 0 0 0 0 0 0 0 127 0" result="hardAlpha"/>
<feMorphology radius="2" operator="erode" in="SourceAlpha" result="effect1_dropShadow_1_358"/>
<feOffset dy="3"/>
<feGaussianBlur stdDeviation="3"/>
<feComposite in2="hardAlpha" operator="out"/>
<feColorMatrix type="matrix" values="0 0 0 0 0 0 0 0 0 0 0 0 0 0 0 0 0 0 0.15 0"/>
<feBlend mode="normal" in2="BackgroundImageFix" result="effect1_dropShadow_1_358"/>
<feBlend mode="normal" in="SourceGraphic" in2="effect1_dropShadow_1_358" result="shape"/>
</filter>
</defs>
</svg>
