<svg width="19" height="19" viewBox="0 0 19 19" fill="none" xmlns="http://www.w3.org/2000/svg">
<path d="M18.0312 9.5C18.0291 7.23804 17.1296 5.06934 15.5301 3.46989C13.9307 1.87044 11.762 0.970922 9.5 0.96875C7.23737 0.96875 5.06742 1.86758 3.4675 3.4675C1.86758 5.06742 0.96875 7.23737 0.96875 9.5C0.96875 11.7626 1.86758 13.9326 3.4675 15.5325C5.06742 17.1324 7.23737 18.0312 9.5 18.0312C11.762 18.0291 13.9307 17.1296 15.5301 15.5301C17.1296 13.9307 18.0291 11.762 18.0312 9.5ZM16.6859 8.84375H13.4211C13.2898 6.41563 12.4367 4.16797 11.0012 2.43711C12.5074 2.76066 13.871 3.55653 14.8934 4.70885C15.9159 5.86116 16.5439 7.30976 16.6859 8.84375ZM6.89961 10.1562H12.1004C11.9527 12.5188 11.0094 14.7254 9.5 16.2594C7.99062 14.7254 7.04727 12.5188 6.89961 10.1562ZM6.89961 8.84375C7.04727 6.48125 7.99062 4.27461 9.5 2.74062C11.0094 4.27461 11.9527 6.48125 12.1004 8.84375H6.89961ZM7.99883 2.43711C6.56328 4.16797 5.71016 6.41563 5.57891 8.84375H2.31406C2.45611 7.30976 3.08409 5.86116 4.10657 4.70885C5.12905 3.55653 6.49264 2.76066 7.99883 2.43711ZM2.31406 10.1562H5.57891C5.71016 12.5844 6.56328 14.832 7.99883 16.5629C6.49264 16.2393 5.12905 15.4435 4.10657 14.2912C3.08409 13.1388 2.45611 11.6902 2.31406 10.1562ZM11.0012 16.5629C12.4367 14.832 13.2898 12.5844 13.4211 10.1562H16.6859C16.5439 11.6902 15.9159 13.1388 14.8934 14.2912C13.871 15.4435 12.5074 16.2393 11.0012 16.5629Z" fill="black"/>
</svg>
