<svg width="121" height="40" viewBox="0 0 121 40" fill="none" xmlns="http://www.w3.org/2000/svg">
<g clip-path="url(#clip0_1_382)">
<path d="M9.75485 1.48438C6.98547 1.48438 5.81217 1.71095 4.59809 2.36025C3.54448 2.92372 2.7206 3.74761 2.15712 4.80121C1.50783 6.01529 1.28125 7.1886 1.28125 9.95797V31.0108C1.28125 33.7802 1.50783 34.9535 2.15712 36.1675C2.7206 37.2211 3.54448 38.045 4.59809 38.6085C5.81217 39.2578 6.98547 39.4844 9.75485 39.4844H111.808C114.577 39.4844 115.75 39.2578 116.964 38.6085C118.018 38.045 118.842 37.2211 119.405 36.1675C120.055 34.9535 120.281 33.7802 120.281 31.0108V9.95797C120.281 7.1886 120.055 6.01529 119.405 4.80121C118.842 3.74761 118.018 2.92372 116.964 2.36025C115.75 1.71095 114.577 1.48438 111.808 1.48438H9.75485Z" fill="black" stroke="#A5A5A5"/>
<path d="M46.123 26.8022C46.123 29.5049 44.3286 31.2407 41.5601 31.2407C38.5645 31.2407 36.6748 29.1094 36.6748 25.6963C36.6748 22.3271 38.5864 20.1592 41.5454 20.1592C43.9478 20.1592 45.6909 21.5215 46.0498 23.6602H44.4019C43.9917 22.3857 42.9883 21.6899 41.5454 21.6899C39.5898 21.6899 38.3521 23.2354 38.3521 25.6816C38.3521 28.1719 39.5972 29.71 41.582 29.71C43.3105 29.71 44.4971 28.6553 44.5117 27.0879V26.8608H41.7871V25.4839H46.123V26.8022ZM50.6649 31.1382C48.3285 31.1382 46.9003 29.5781 46.9003 26.9927C46.9003 24.4219 48.3358 22.8545 50.6649 22.8545C52.9867 22.8545 54.4223 24.4219 54.4223 26.9927C54.4223 29.5781 52.994 31.1382 50.6649 31.1382ZM50.6649 29.7393C52.0272 29.7393 52.8036 28.7285 52.8036 26.9927C52.8036 25.2642 52.0272 24.2534 50.6649 24.2534C49.2953 24.2534 48.5263 25.2642 48.5263 26.9927C48.5263 28.7358 49.2953 29.7393 50.6649 29.7393ZM58.7811 31.1382C56.4446 31.1382 55.0164 29.5781 55.0164 26.9927C55.0164 24.4219 56.452 22.8545 58.7811 22.8545C61.1028 22.8545 62.5384 24.4219 62.5384 26.9927C62.5384 29.5781 61.1102 31.1382 58.7811 31.1382ZM58.7811 29.7393C60.1434 29.7393 60.9197 28.7285 60.9197 26.9927C60.9197 25.2642 60.1434 24.2534 58.7811 24.2534C57.4114 24.2534 56.6424 25.2642 56.6424 26.9927C56.6424 28.7358 57.4114 29.7393 58.7811 29.7393ZM66.8679 29.5049C68.2155 29.5049 69.0285 28.4941 69.0285 26.8975C69.0285 25.3081 68.2082 24.29 66.8679 24.29C65.5129 24.29 64.7512 25.3081 64.7512 26.8975C64.7512 28.4868 65.5129 29.5049 66.8679 29.5049ZM66.8898 34.0312C64.8977 34.0312 63.6086 33.1377 63.4401 31.7827H65.0515C65.1833 32.3613 65.8498 32.7349 66.9118 32.7349C68.2229 32.7349 68.9992 32.1123 68.9992 31.0576V29.5269H68.882C68.3986 30.3911 67.5197 30.8672 66.4211 30.8672C64.385 30.8672 63.1252 29.2925 63.1252 26.9048C63.1252 24.4731 64.3996 22.8765 66.4357 22.8765C67.5344 22.8765 68.4938 23.4185 68.9406 24.2827H69.0651V23.0083H70.5739V31.0503C70.5739 32.874 69.1457 34.0312 66.8898 34.0312ZM72.0323 30.9844V19.8955H73.607V30.9844H72.0323ZM78.3394 24.1948C77.1748 24.1948 76.3618 25.0151 76.2739 26.2603H80.3022C80.2656 25.0078 79.5039 24.1948 78.3394 24.1948ZM80.2949 28.8311H81.811C81.4521 30.2593 80.1777 31.1382 78.354 31.1382C76.0688 31.1382 74.6699 29.5708 74.6699 27.022C74.6699 24.4731 76.0981 22.8545 78.3467 22.8545C80.5659 22.8545 81.9062 24.3706 81.9062 26.8755V27.4248H76.2739V27.5127C76.3252 28.9116 77.1382 29.7979 78.3979 29.7979C79.3501 29.7979 80.002 29.4536 80.2949 28.8311ZM86.2806 20.4155H90.4188C92.4842 20.4155 93.9051 21.8438 93.9051 23.9385C93.9051 26.0039 92.4402 27.4248 90.3675 27.4248H87.9212V30.9844H86.2806V20.4155ZM87.9212 21.8657V25.9819H89.9866C91.4002 25.9819 92.2278 25.2495 92.2278 23.9385C92.2278 22.5981 91.4295 21.8657 89.9866 21.8657H87.9212ZM95.0046 30.9844V19.8955H96.5793V30.9844H95.0046ZM100.645 29.7905C101.832 29.7905 102.711 29.0361 102.711 28.0474V27.3809L100.762 27.5054C99.6637 27.5786 99.1656 27.9521 99.1656 28.6553C99.1656 29.373 99.7882 29.7905 100.645 29.7905ZM100.242 31.1162C98.7042 31.1162 97.5836 30.186 97.5836 28.7285C97.5836 27.293 98.6529 26.4653 100.55 26.3481L102.711 26.2236V25.5352C102.711 24.6929 102.154 24.2168 101.077 24.2168C100.198 24.2168 99.5904 24.5391 99.4146 25.103H97.8912C98.0523 23.7334 99.3414 22.8545 101.15 22.8545C103.15 22.8545 104.278 23.8506 104.278 25.5352V30.9844H102.762V29.8638H102.637C102.161 30.6621 101.29 31.1162 100.242 31.1162ZM106.41 33.8774C106.278 33.8774 105.905 33.8628 105.758 33.8408V32.4858C105.883 32.5078 106.125 32.5151 106.271 32.5151C107.018 32.5151 107.443 32.2075 107.714 31.4019L107.831 31.0137L104.945 23.0083H106.659L108.659 29.3438H108.783L110.775 23.0083H112.445L109.472 31.314C108.791 33.2549 108.036 33.8774 106.41 33.8774ZM42.6416 13.1145C42.6416 14.646 41.6248 15.6296 40.0559 15.6296C38.3584 15.6296 37.2876 14.4219 37.2876 12.4878C37.2876 10.5786 38.3708 9.3501 40.0476 9.3501C41.4089 9.3501 42.3967 10.1221 42.6001 11.334H41.6663C41.4338 10.6118 40.8652 10.2175 40.0476 10.2175C38.9395 10.2175 38.238 11.0933 38.238 12.4795C38.238 13.8906 38.9436 14.7622 40.0684 14.7622C41.0479 14.7622 41.7202 14.1646 41.7285 13.2764V13.1477H40.1846V12.3674H42.6416V13.1145ZM45.7255 11.637C45.0656 11.637 44.6049 12.1018 44.5551 12.8074H46.8378C46.817 12.0977 46.3854 11.637 45.7255 11.637ZM46.8336 14.2642H47.6928C47.4894 15.0735 46.7672 15.5715 45.7338 15.5715C44.4389 15.5715 43.6461 14.6833 43.6461 13.239C43.6461 11.7947 44.4555 10.8774 45.7296 10.8774C46.9872 10.8774 47.7467 11.7366 47.7467 13.156V13.4673H44.5551V13.5171C44.5841 14.3098 45.0448 14.812 45.7587 14.812C46.2982 14.812 46.6676 14.6169 46.8336 14.2642ZM49.187 9.83984H50.0794V10.9854H51.0589V11.7366H50.0794V14.0608C50.0794 14.5339 50.2744 14.7415 50.7185 14.7415C50.8555 14.7415 50.9344 14.7332 51.0589 14.7207V15.4636C50.9136 15.4885 50.7476 15.5093 50.5733 15.5093C49.5813 15.5093 49.187 15.1606 49.187 14.2891V11.7366H48.469V10.9854H49.187V9.83984ZM54.5579 15.4844V10.9646H55.4461V15.4844H54.5579ZM55.002 10.1719C54.67 10.1719 54.4251 9.9353 54.4251 9.62817C54.4251 9.31689 54.67 9.08032 55.002 9.08032C55.334 9.08032 55.5789 9.31689 55.5789 9.62817C55.5789 9.9353 55.334 10.1719 55.002 10.1719ZM57.1271 9.83984H58.0195V10.9854H58.999V11.7366H58.0195V14.0608C58.0195 14.5339 58.2145 14.7415 58.6586 14.7415C58.7956 14.7415 58.8745 14.7332 58.999 14.7207V15.4636C58.8537 15.4885 58.6877 15.5093 58.5134 15.5093C57.5214 15.5093 57.1271 15.1606 57.1271 14.2891V11.7366H56.4091V10.9854H57.1271V9.83984ZM64.3906 15.5715C63.0666 15.5715 62.2573 14.6875 62.2573 13.2224C62.2573 11.7656 63.0708 10.8774 64.3906 10.8774C65.7063 10.8774 66.5198 11.7656 66.5198 13.2224C66.5198 14.6875 65.7104 15.5715 64.3906 15.5715ZM64.3906 14.7788C65.1626 14.7788 65.6025 14.2061 65.6025 13.2224C65.6025 12.2429 65.1626 11.6702 64.3906 11.6702C63.6145 11.6702 63.1787 12.2429 63.1787 13.2224C63.1787 14.2102 63.6145 14.7788 64.3906 14.7788ZM67.6446 15.4844V10.9646H68.5038V11.6826H68.5702C68.7901 11.1804 69.2384 10.8774 69.9191 10.8774C70.9276 10.8774 71.4838 11.4834 71.4838 12.5583V15.4844H70.5914V12.7825C70.5914 12.0562 70.276 11.6951 69.6161 11.6951C68.9562 11.6951 68.537 12.135 68.537 12.8406V15.4844H67.6446Z" fill="white"/>
<path d="M10.2082 9.35186C9.92642 9.64702 9.76339 10.1477 9.78812 10.603V30.3714C9.75771 30.8275 9.92108 31.2876 10.2206 31.633L21.3435 20.6213V20.3531L10.2707 9.28931L10.2082 9.35186Z" fill="url(#paint0_linear_1_382)"/>
<path d="M25.0076 24.3123L21.3435 20.6214V20.3533L25.0076 16.6624L25.0881 16.716L29.4761 19.2004C30.7272 19.9064 30.7272 21.0682 29.4761 21.7832L25.1059 24.2676L25.0076 24.3123Z" fill="url(#paint1_linear_1_382)"/>
<path d="M25.1149 24.2587L21.3435 20.4873L10.2082 31.6226C10.7292 32.0864 11.5069 32.1127 12.0581 31.6852L25.1149 24.2587Z" fill="url(#paint2_linear_1_382)"/>
<path d="M25.1149 16.716L12.0581 9.29837C11.3452 8.8843 10.6426 8.89422 10.2082 9.35199L21.3435 20.4873L25.1149 16.716Z" fill="url(#paint3_linear_1_382)"/>
<path opacity="0.2" d="M25.0076 24.1782L12.0581 31.5511C11.5292 31.9503 10.7996 31.9503 10.2707 31.5511L10.2082 31.6137L10.2707 31.6852C10.7996 32.0844 11.5292 32.0844 12.0581 31.6852L25.1149 24.2587L25.0076 24.1782Z" fill="black"/>
<path opacity="0.12" d="M10.1832 31.5043C9.89614 31.1498 9.75547 30.699 9.78998 30.2442V30.3782C9.75957 30.8343 9.91053 31.284 10.21 31.6294L10.2787 31.5577L10.1832 31.5043ZM29.4761 21.6491L25.0076 24.1782L25.088 24.2587L29.4761 21.7742C30.0037 21.5511 30.3671 21.0574 30.4234 20.4873C30.31 21.0031 29.9584 21.4343 29.4761 21.6491Z" fill="black"/>
<path opacity="0.25" d="M12.0581 9.4234L29.476 19.3255C29.9584 19.5403 30.31 19.9715 30.4233 20.4872C30.3671 19.9172 30.0037 19.4234 29.476 19.2003L12.0581 9.29829C10.8159 8.58334 9.78812 9.17317 9.78812 10.6031V10.7371C9.81493 9.30723 10.8159 8.71739 12.0581 9.4234Z" fill="white"/>
</g>
<defs>
<linearGradient id="paint0_linear_1_382" x1="16.8476" y1="10.3944" x2="7.35794" y2="19.8585" gradientUnits="userSpaceOnUse">
<stop stop-color="#00A0FF"/>
<stop offset="0.01" stop-color="#00A1FF"/>
<stop offset="0.26" stop-color="#00BEFF"/>
<stop offset="0.51" stop-color="#00D2FF"/>
<stop offset="0.76" stop-color="#00DFFF"/>
<stop offset="1" stop-color="#00E3FF"/>
</linearGradient>
<linearGradient id="paint1_linear_1_382" x1="31.1115" y1="20.4873" x2="9.49326" y2="20.4873" gradientUnits="userSpaceOnUse">
<stop stop-color="#FFE000"/>
<stop offset="0.41" stop-color="#FFBD00"/>
<stop offset="0.78" stop-color="#FFA500"/>
<stop offset="1" stop-color="#FF9C00"/>
</linearGradient>
<linearGradient id="paint2_linear_1_382" x1="23.0683" y1="24.0382" x2="6.84167" y2="40.2577" gradientUnits="userSpaceOnUse">
<stop stop-color="#FF3A44"/>
<stop offset="1" stop-color="#C31162"/>
</linearGradient>
<linearGradient id="paint3_linear_1_382" x1="7.40197" y1="7.64192" x2="14.6406" y2="14.8741" gradientUnits="userSpaceOnUse">
<stop stop-color="#32A071"/>
<stop offset="0.07" stop-color="#2DA771"/>
<stop offset="0.48" stop-color="#15CF74"/>
<stop offset="0.8" stop-color="#06E775"/>
<stop offset="1" stop-color="#00F076"/>
</linearGradient>
<clipPath id="clip0_1_382">
<rect width="120" height="39" fill="white" transform="translate(0.78125 0.984375)"/>
</clipPath>
</defs>
</svg>
