<svg width="51" height="51" viewBox="0 0 51 51" fill="none" xmlns="http://www.w3.org/2000/svg">
<g filter="url(#filter0_d_1_367)">
<rect x="4.3125" y="1.10938" width="42" height="42" rx="21" fill="#262626"/>
<path d="M28.5 22C28.5 22.6922 28.2947 23.3689 27.9101 23.9445C27.5256 24.5201 26.9789 24.9687 26.3394 25.2336C25.6999 25.4985 24.9961 25.5678 24.3172 25.4327C23.6383 25.2977 23.0146 24.9644 22.5251 24.4749C22.0356 23.9854 21.7023 23.3617 21.5673 22.6828C21.4322 22.0039 21.5015 21.3001 21.7664 20.6606C22.0313 20.0211 22.4799 19.4744 23.0555 19.0899C23.6311 18.7053 24.3078 18.5 25 18.5C25.9274 18.5029 26.8159 18.8726 27.4717 19.5283C28.1274 20.1841 28.4971 21.0726 28.5 22ZM35.9375 17.1875V26.8125C35.9375 28.437 35.2922 29.9949 34.1435 31.1435C32.9949 32.2922 31.437 32.9375 29.8125 32.9375H20.1875C18.563 32.9375 17.0051 32.2922 15.8565 31.1435C14.7078 29.9949 14.0625 28.437 14.0625 26.8125V17.1875C14.0625 15.563 14.7078 14.0051 15.8565 12.8565C17.0051 11.7078 18.563 11.0625 20.1875 11.0625H29.8125C31.437 11.0625 32.9949 11.7078 34.1435 12.8565C35.2922 14.0051 35.9375 15.563 35.9375 17.1875ZM30.25 22C30.25 20.9616 29.9421 19.9466 29.3652 19.0833C28.7883 18.2199 27.9684 17.547 27.0091 17.1496C26.0498 16.7523 24.9942 16.6483 23.9758 16.8509C22.9574 17.0535 22.0219 17.5535 21.2877 18.2877C20.5535 19.0219 20.0535 19.9574 19.8509 20.9758C19.6483 21.9942 19.7523 23.0498 20.1496 24.0091C20.547 24.9684 21.2199 25.7883 22.0833 26.3652C22.9466 26.9421 23.9616 27.25 25 27.25C26.3924 27.25 27.7277 26.6969 28.7123 25.7123C29.6969 24.7277 30.25 23.3924 30.25 22ZM32 16.3125C32 16.0529 31.923 15.7992 31.7788 15.5833C31.6346 15.3675 31.4296 15.1992 31.1898 15.0999C30.9499 15.0006 30.686 14.9746 30.4314 15.0252C30.1768 15.0759 29.943 15.2009 29.7594 15.3844C29.5759 15.568 29.4509 15.8018 29.4002 16.0564C29.3496 16.311 29.3756 16.5749 29.4749 16.8148C29.5742 17.0546 29.7425 17.2596 29.9583 17.4038C30.1742 17.548 30.4279 17.625 30.6875 17.625C31.0356 17.625 31.3694 17.4867 31.6156 17.2406C31.8617 16.9944 32 16.6606 32 16.3125Z" fill="white"/>
</g>
<defs>
<filter id="filter0_d_1_367" x="0.3125" y="0.109375" width="50" height="50" filterUnits="userSpaceOnUse" color-interpolation-filters="sRGB">
<feFlood flood-opacity="0" result="BackgroundImageFix"/>
<feColorMatrix in="SourceAlpha" type="matrix" values="0 0 0 0 0 0 0 0 0 0 0 0 0 0 0 0 0 0 127 0" result="hardAlpha"/>
<feMorphology radius="2" operator="erode" in="SourceAlpha" result="effect1_dropShadow_1_367"/>
<feOffset dy="3"/>
<feGaussianBlur stdDeviation="3"/>
<feComposite in2="hardAlpha" operator="out"/>
<feColorMatrix type="matrix" values="0 0 0 0 0 0 0 0 0 0 0 0 0 0 0 0 0 0 0.15 0"/>
<feBlend mode="normal" in2="BackgroundImageFix" result="effect1_dropShadow_1_367"/>
<feBlend mode="normal" in="SourceGraphic" in2="effect1_dropShadow_1_367" result="shape"/>
</filter>
</defs>
</svg>
