<svg width="51" height="51" viewBox="0 0 51 51" fill="none" xmlns="http://www.w3.org/2000/svg">
<g filter="url(#filter0_d_1_370)">
<rect x="4.3125" y="1.10938" width="42" height="42" rx="21" fill="#2867B2"/>
<path d="M33.8205 11.5H16.2944C15.3367 11.5 14.5 12.1891 14.5 13.1355V30.7005C14.5 31.652 15.3367 32.5 16.2944 32.5H33.8153C34.7781 32.5 35.5 31.6464 35.5 30.7005V13.1355C35.5056 12.1891 34.7781 11.5 33.8205 11.5ZM21.0095 29.0045H18.0011V19.6506H21.0095V29.0045ZM19.6094 18.2284H19.5878C18.625 18.2284 18.0016 17.5117 18.0016 16.6145C18.0016 15.7009 18.6414 15.0011 19.6258 15.0011C20.6102 15.0011 21.2125 15.6958 21.2341 16.6145C21.2336 17.5117 20.6102 18.2284 19.6094 18.2284ZM32.0045 29.0045H28.9961V23.89C28.9961 22.6647 28.5583 21.8275 27.4698 21.8275C26.6383 21.8275 26.1461 22.39 25.9272 22.938C25.8452 23.1348 25.8231 23.403 25.8231 23.6767V29.0045H22.8147V19.6506H25.8231V20.9523C26.2609 20.3289 26.9448 19.4317 28.5363 19.4317C30.5111 19.4317 32.005 20.7334 32.005 23.5398L32.0045 29.0045Z" fill="white"/>
</g>
<defs>
<filter id="filter0_d_1_370" x="0.3125" y="0.109375" width="50" height="50" filterUnits="userSpaceOnUse" color-interpolation-filters="sRGB">
<feFlood flood-opacity="0" result="BackgroundImageFix"/>
<feColorMatrix in="SourceAlpha" type="matrix" values="0 0 0 0 0 0 0 0 0 0 0 0 0 0 0 0 0 0 127 0" result="hardAlpha"/>
<feMorphology radius="2" operator="erode" in="SourceAlpha" result="effect1_dropShadow_1_370"/>
<feOffset dy="3"/>
<feGaussianBlur stdDeviation="3"/>
<feComposite in2="hardAlpha" operator="out"/>
<feColorMatrix type="matrix" values="0 0 0 0 0 0 0 0 0 0 0 0 0 0 0 0 0 0 0.15 0"/>
<feBlend mode="normal" in2="BackgroundImageFix" result="effect1_dropShadow_1_370"/>
<feBlend mode="normal" in="SourceGraphic" in2="effect1_dropShadow_1_370" result="shape"/>
</filter>
</defs>
</svg>
