<svg width="156" height="52" viewBox="0 0 156 52" fill="none" xmlns="http://www.w3.org/2000/svg">
<path d="M109.958 23.6512C109.982 23.244 109.962 22.8277 110.038 22.4299C110.906 17.8916 113.02 14.04 116.596 11.1017C117.998 9.95035 119.534 8.85928 121.181 8.1311C125.694 6.13793 130.383 5.80602 135.162 7.21878C139.255 8.42814 142.656 10.6742 145.327 13.9886C147.302 16.438 148.641 19.2217 149.318 22.3056C150.271 26.6425 149.926 30.8704 148.067 34.9116C145.857 39.7174 142.342 43.1713 137.291 44.9485C137.186 44.9858 137.063 44.9731 136.9 44.9241C140.86 42.7665 144.181 39.9769 146.185 35.7685C142.954 32.7224 139.464 30.0569 135.522 27.6928C135.19 28.4577 134.885 29.1618 134.498 30.0535C134.246 29.2621 134.577 28.7225 134.725 28.2105C134.918 27.5425 134.773 27.165 134.171 26.8611C132.297 25.9139 130.435 24.9415 128.467 23.9267C127.008 26.7427 126.395 29.7173 125.257 32.5012C125.145 31.5084 125.492 30.5897 125.753 29.6776C126.257 27.9198 126.834 26.1831 127.425 24.4522C127.614 23.8978 127.58 23.5472 126.979 23.3346C125.292 22.7372 123.618 22.0966 121.922 21.5227C121.209 21.2817 121.027 21.4306 120.796 22.159C120.677 22.537 120.566 22.9174 120.438 23.2926C120.424 23.3357 120.32 23.3477 120.135 23.427C120.228 23.0275 120.304 22.7015 120.38 22.3746C120.46 22.0267 120.539 21.6782 120.641 21.2251C120.218 21.0918 119.791 20.914 119.347 20.8253C117.125 20.3825 114.906 19.9217 112.671 19.5531C111.731 19.3972 111.466 19.2789 111.161 20.5124C110.897 21.5799 110.503 22.6151 110.166 23.6654C110.097 23.6613 110.027 23.6576 109.957 23.6526L109.958 23.6512ZM145.959 29.4838C145.673 29.1129 145.376 28.7487 145.103 28.3679C143.497 26.1337 141.715 24.0547 139.698 22.1799C138.954 21.4881 138.778 21.4772 138.238 22.3221C137.64 23.2583 137.141 24.2587 136.555 25.2025C136.225 25.7339 136.352 26.0783 136.821 26.4068C137.407 26.8176 137.982 27.2458 138.554 27.6761C140.914 29.4503 143.138 31.3679 144.994 33.6873C145.405 34.2012 145.891 34.6547 146.365 35.1598C149.723 28.9285 148.096 20.4184 144.51 16.2898C142.938 17.0983 141.712 18.3428 140.46 19.5584C140.045 19.9607 140.098 20.2841 140.483 20.6645C141.019 21.1956 141.556 21.7321 142.039 22.3109C143.808 24.4326 145.288 26.7229 145.958 29.4842L145.959 29.4838ZM127.609 8.30521C121.377 8.33609 113.804 13.5633 111.939 18.9708C114.817 18.8607 117.666 18.9504 120.472 19.5633C121.032 19.6852 121.259 19.4352 121.454 18.9718C121.993 17.691 122.568 16.4252 123.118 15.1488C123.236 14.8757 123.309 14.5824 123.461 14.1276C121.494 14.0284 119.659 13.9355 117.824 13.8427C118.335 13.4655 118.88 13.2139 119.444 13.1611C120.785 13.036 122.135 12.9692 123.481 12.9532C124.016 12.9467 124.385 12.8121 124.672 12.3652C125.059 11.7637 125.462 11.1714 125.883 10.5932C126.435 9.83652 127.01 9.09793 127.609 8.30521ZM133.229 15.2673C135.281 16.6239 137.218 17.9049 139.086 19.141C140.525 17.6771 141.957 16.2194 143.421 14.7302C142.009 12.9734 140.271 11.6806 138.379 10.5569C137.829 10.2306 137.445 10.3219 137.032 10.7247C135.607 12.1144 134.354 13.6447 133.229 15.2673ZM135.652 25.4914C135.855 25.0581 136.041 24.6696 136.22 24.278C136.502 23.6638 136.771 23.0437 137.062 22.4328C137.329 21.8696 137.924 21.245 137.814 20.7772C137.701 20.2919 136.935 19.9367 136.422 19.5723C135.038 18.5905 133.591 17.7166 131.966 17.0248C131.117 18.5599 130.322 20.0242 129.499 21.4716C129.232 21.94 129.211 22.2155 129.775 22.4922C131.698 23.4372 133.594 24.4357 135.653 25.491L135.652 25.4914ZM130.847 16.5321C128.801 15.5877 126.776 14.8371 124.476 14.4929C123.694 16.026 122.895 17.5303 122.16 19.0648C121.853 19.7057 121.95 19.8248 122.572 20.0147C124.498 20.6044 126.425 21.1892 128.395 21.7884C129.188 20.0911 129.99 18.3704 130.848 16.5326L130.847 16.5321ZM131.871 14.7254C133.181 12.9818 134.501 11.2236 135.882 9.38419C134.239 8.81157 132.646 8.34978 130.967 8.29943C130.596 8.28867 130.158 8.41194 129.854 8.62123C128.169 9.77672 126.912 11.3448 125.647 12.9929C127.816 13.5969 129.865 14.1675 131.87 14.7268L131.871 14.7254Z" fill="#0B5CFF"/>
<path d="M5.41164 45.366V30.8952H9.32137V45.366H5.41164ZM0.524476 31.372V27.9629H14.2324V31.372H0.524476ZM20.2882 45.366V30.8952H24.198V45.366H20.2882ZM15.4011 31.372V27.9629H29.109V31.372H15.4011ZM35.523 45.366L30.2306 27.9629H34.2595L38.4553 42.6482L37.5494 42.1953H39.9811L39.0275 42.6482L42.9134 27.9629H46.8231L41.8882 45.366H35.523ZM62.5859 45.8189C61.0283 45.8189 59.6695 45.5646 58.5093 45.056C57.3491 44.5316 56.3875 43.8323 55.6246 42.9581C54.8777 42.084 54.3214 41.1145 53.9559 40.0497C53.5903 38.9848 53.4075 37.92 53.4075 36.8551V36.3307C53.4075 35.234 53.5903 34.1612 53.9559 33.1123C54.3214 32.0633 54.8697 31.1098 55.6008 30.2515C56.3478 29.3933 57.2696 28.7099 58.3662 28.2013C59.4787 27.6927 60.7581 27.4384 62.2044 27.4384C63.7779 27.4384 65.1685 27.7324 66.3764 28.3205C67.5843 28.8926 68.5538 29.6953 69.2849 30.7283C70.0159 31.7455 70.4371 32.9295 70.5484 34.2804H66.6386C66.5433 33.6447 66.289 33.0885 65.8758 32.6117C65.4784 32.1349 64.9619 31.7614 64.3262 31.4912C63.7063 31.221 62.9991 31.0859 62.2044 31.0859C61.4416 31.0859 60.7581 31.221 60.1542 31.4912C59.5662 31.7614 59.0576 32.1428 58.6285 32.6355C58.2152 33.1282 57.8974 33.7162 57.6749 34.3996C57.4683 35.0672 57.3649 35.8062 57.3649 36.6168C57.3649 37.4591 57.4762 38.2299 57.6987 38.9292C57.9371 39.6126 58.2788 40.2086 58.7238 40.7172C59.1688 41.2099 59.7171 41.5913 60.3688 41.8615C61.0363 42.1317 61.7753 42.2668 62.5859 42.2668C63.6666 42.2668 64.6043 42.0443 65.399 41.5993C66.1936 41.1543 66.7658 40.5662 67.1154 39.8351L66.6386 42.5052V38.3571H70.2385V42.0761C69.4915 43.284 68.4584 44.2137 67.1393 44.8653C65.836 45.5011 64.3182 45.8189 62.5859 45.8189ZM62.0852 39.1199V36.3068H71.6688V39.1199H62.0852ZM74.1484 45.366V27.9629H77.9866V45.366H74.1484ZM72.5988 30.776V27.9629H77.9866V30.776H72.5988ZM87.8665 45.8189C86.7222 45.8189 85.705 45.6441 84.815 45.2944C83.925 44.9289 83.1701 44.4362 82.5502 43.8164C81.9463 43.1965 81.4854 42.4893 81.1675 41.6946C80.8497 40.8841 80.6907 40.0338 80.6907 39.1438V38.5955C80.6907 37.6895 80.8497 36.8313 81.1675 36.0208C81.5013 35.1943 81.9781 34.4712 82.5979 33.8513C83.2336 33.2315 83.9965 32.7468 84.8865 32.3971C85.7766 32.0316 86.7699 31.8488 87.8665 31.8488C88.9949 31.8488 89.9962 32.0316 90.8703 32.3971C91.7603 32.7468 92.5153 33.2315 93.1351 33.8513C93.7549 34.4712 94.2317 35.1943 94.5655 36.0208C94.8993 36.8313 95.0661 37.6895 95.0661 38.5955V39.1438C95.0661 40.0338 94.9072 40.8841 94.5893 41.6946C94.2715 42.4893 93.8026 43.1965 93.1828 43.8164C92.5788 44.4362 91.8319 44.9289 90.9418 45.2944C90.0518 45.6441 89.0267 45.8189 87.8665 45.8189ZM87.8665 42.6005C88.6135 42.6005 89.2333 42.4416 89.726 42.1238C90.2187 41.8059 90.5922 41.3609 90.8465 40.7887C91.1167 40.2166 91.2518 39.5808 91.2518 38.8815C91.2518 38.1346 91.1167 37.4829 90.8465 36.9267C90.5763 36.3545 90.1869 35.9016 89.6783 35.5678C89.1856 35.234 88.5817 35.0672 87.8665 35.0672C87.1672 35.0672 86.5633 35.234 86.0547 35.5678C85.5461 35.9016 85.1567 36.3545 84.8865 36.9267C84.6322 37.4829 84.5051 38.1346 84.5051 38.8815C84.5051 39.5808 84.6322 40.2166 84.8865 40.7887C85.1408 41.3609 85.5223 41.8059 86.0308 42.1238C86.5394 42.4416 87.1513 42.6005 87.8665 42.6005ZM105.762 45.7951C104.697 45.7951 103.76 45.5726 102.949 45.1276C102.139 44.6667 101.503 44.0071 101.042 43.1489C100.581 42.2906 100.335 41.2417 100.303 40.002H100.756V45.366H97.7282V27.9629H101.543V36.8075L100.637 37.9518C100.684 36.6326 100.931 35.5281 101.376 34.638C101.837 33.7321 102.464 33.0567 103.259 32.6117C104.054 32.1508 104.96 31.9203 105.977 31.9203C106.867 31.9203 107.669 32.0872 108.385 32.4209C109.116 32.7388 109.736 33.1997 110.244 33.8037C110.753 34.3917 111.142 35.091 111.412 35.9016C111.698 36.7121 111.841 37.5942 111.841 38.5478V39.0723C111.841 40.0258 111.698 40.9079 111.412 41.7185C111.142 42.529 110.737 43.2442 110.196 43.8641C109.672 44.468 109.036 44.9448 108.289 45.2944C107.542 45.6282 106.7 45.7951 105.762 45.7951ZM104.761 42.6005C105.413 42.6005 105.977 42.4416 106.454 42.1238C106.946 41.8059 107.328 41.3609 107.598 40.7887C107.868 40.2007 108.003 39.5411 108.003 38.81C108.003 38.063 107.868 37.4114 107.598 36.8551C107.328 36.2989 106.946 35.8698 106.454 35.5678C105.977 35.2499 105.413 35.091 104.761 35.091C104.189 35.091 103.648 35.2261 103.14 35.4963C102.631 35.7665 102.218 36.1558 101.9 36.6644C101.598 37.1571 101.447 37.7611 101.447 38.4763V39.3583C101.447 40.0417 101.606 40.6298 101.924 41.1225C102.258 41.5993 102.679 41.9648 103.188 42.2191C103.696 42.4734 104.221 42.6005 104.761 42.6005ZM122.382 45.366V41.5039H121.738V37.3081C121.738 36.6406 121.579 36.14 121.261 35.8062C120.943 35.4724 120.435 35.3056 119.735 35.3056C119.386 35.3056 118.925 35.3135 118.353 35.3294C117.78 35.3453 117.192 35.3691 116.588 35.4009C115.985 35.4327 115.436 35.4645 114.944 35.4963V32.2779C115.309 32.2461 115.738 32.2143 116.231 32.1825C116.724 32.1508 117.232 32.1269 117.757 32.111C118.281 32.0951 118.774 32.0872 119.235 32.0872C120.57 32.0872 121.69 32.2779 122.596 32.6593C123.518 33.0408 124.217 33.6209 124.694 34.3996C125.171 35.1625 125.409 36.1479 125.409 37.3558V45.366H122.382ZM118.21 45.6997C117.272 45.6997 116.445 45.5328 115.73 45.1991C115.031 44.8653 114.483 44.3885 114.085 43.7687C113.688 43.133 113.489 42.378 113.489 41.5039C113.489 40.5503 113.736 39.7716 114.228 39.1676C114.721 38.5478 115.412 38.0948 116.302 37.8087C117.192 37.5068 118.218 37.3558 119.378 37.3558H122.167V39.4775H119.354C118.686 39.4775 118.17 39.6444 117.804 39.9782C117.455 40.296 117.28 40.7331 117.28 41.2894C117.28 41.8138 117.455 42.2429 117.804 42.5767C118.17 42.8946 118.686 43.0535 119.354 43.0535C119.783 43.0535 120.164 42.982 120.498 42.8389C120.848 42.68 121.134 42.4178 121.356 42.0522C121.579 41.6867 121.706 41.1781 121.738 40.5265L122.644 41.4801C122.564 42.386 122.342 43.1489 121.976 43.7687C121.627 44.3885 121.134 44.8653 120.498 45.1991C119.878 45.5328 119.115 45.6997 118.21 45.6997ZM128.812 45.366V27.9629H132.651V45.366H128.812ZM127.263 30.776V27.9629H132.651V30.776H127.263Z" fill="black"/>
</svg>
