<svg width="51" height="51" viewBox="0 0 51 51" fill="none" xmlns="http://www.w3.org/2000/svg">
<g filter="url(#filter0_d_1_361)">
<rect x="4.3125" y="1.10938" width="42" height="42" rx="21" fill="#2AA8E0"/>
<path d="M38.1562 15.7744C37.2067 16.187 36.2021 16.4588 35.1741 16.5813C36.2545 15.9486 37.0669 14.9436 37.4591 13.7547C36.4377 14.352 35.3221 14.771 34.16 14.994C33.6707 14.4811 33.0822 14.0732 32.4303 13.7949C31.7784 13.5165 31.0767 13.3737 30.3679 13.375C27.4981 13.375 25.1757 15.6637 25.1757 18.485C25.1736 18.8774 25.2186 19.2687 25.3096 19.6504C23.2518 19.5539 21.2367 19.029 19.3934 18.1091C17.55 17.1892 15.9189 15.8947 14.6046 14.3084C14.1434 15.0858 13.8996 15.9727 13.8984 16.8766C13.8984 18.6484 14.8229 20.2147 16.2188 21.1322C15.3917 21.1126 14.5817 20.8937 13.8573 20.4941V20.5574C13.8573 23.0359 15.6503 25.0979 18.0233 25.5672C17.5771 25.6862 17.1172 25.7464 16.6554 25.7465C16.3277 25.7471 16.0007 25.7153 15.6793 25.6516C16.339 27.6818 18.259 29.1584 20.5335 29.2006C18.6853 30.6249 16.4163 31.3947 14.083 31.3891C13.6688 31.3885 13.2551 31.3638 12.8438 31.3152C15.2174 32.8309 17.9766 33.6327 20.7929 33.625C30.3568 33.625 35.5818 25.8361 35.5818 19.0809C35.5818 18.8594 35.576 18.6379 35.5654 18.4217C36.5795 17.7003 37.4569 16.8039 38.1562 15.7744Z" fill="white"/>
</g>
<defs>
<filter id="filter0_d_1_361" x="0.3125" y="0.109375" width="50" height="50" filterUnits="userSpaceOnUse" color-interpolation-filters="sRGB">
<feFlood flood-opacity="0" result="BackgroundImageFix"/>
<feColorMatrix in="SourceAlpha" type="matrix" values="0 0 0 0 0 0 0 0 0 0 0 0 0 0 0 0 0 0 127 0" result="hardAlpha"/>
<feMorphology radius="2" operator="erode" in="SourceAlpha" result="effect1_dropShadow_1_361"/>
<feOffset dy="3"/>
<feGaussianBlur stdDeviation="3"/>
<feComposite in2="hardAlpha" operator="out"/>
<feColorMatrix type="matrix" values="0 0 0 0 0 0 0 0 0 0 0 0 0 0 0 0 0 0 0.15 0"/>
<feBlend mode="normal" in2="BackgroundImageFix" result="effect1_dropShadow_1_361"/>
<feBlend mode="normal" in="SourceGraphic" in2="effect1_dropShadow_1_361" result="shape"/>
</filter>
</defs>
</svg>
