<svg width="51" height="51" viewBox="0 0 51 51" fill="none" xmlns="http://www.w3.org/2000/svg">
<g filter="url(#filter0_d_1_364)">
<rect x="4.3125" y="1.10938" width="42" height="42" rx="21" fill="#CD201F"/>
<g clip-path="url(#clip0_1_364)">
<path d="M37.8294 16.5557C37.8294 14.2706 36.1485 12.4323 34.0716 12.4323C31.2583 12.3008 28.3891 12.25 25.457 12.25H24.543C21.618 12.25 18.7438 12.3008 15.9305 12.4328C13.8586 12.4328 12.1777 14.2812 12.1777 16.5664C12.0508 18.3737 11.997 20.1815 12 21.9893C11.9949 23.7971 12.0525 25.6067 12.1727 27.4179C12.1727 29.703 13.8535 31.5565 15.9254 31.5565C18.8809 31.6936 21.9125 31.7546 24.9949 31.7495C28.0824 31.7596 31.1056 31.6953 34.0645 31.5565C36.1414 31.5565 37.8223 29.703 37.8223 27.4179C37.9441 25.605 38 23.7971 37.9949 21.9843C38.0064 20.1764 37.9513 18.3669 37.8294 16.5557ZM22.5117 26.971V16.9925L29.875 21.9792L22.5117 26.971Z" fill="white"/>
</g>
</g>
<defs>
<filter id="filter0_d_1_364" x="0.3125" y="0.109375" width="50" height="50" filterUnits="userSpaceOnUse" color-interpolation-filters="sRGB">
<feFlood flood-opacity="0" result="BackgroundImageFix"/>
<feColorMatrix in="SourceAlpha" type="matrix" values="0 0 0 0 0 0 0 0 0 0 0 0 0 0 0 0 0 0 127 0" result="hardAlpha"/>
<feMorphology radius="2" operator="erode" in="SourceAlpha" result="effect1_dropShadow_1_364"/>
<feOffset dy="3"/>
<feGaussianBlur stdDeviation="3"/>
<feComposite in2="hardAlpha" operator="out"/>
<feColorMatrix type="matrix" values="0 0 0 0 0 0 0 0 0 0 0 0 0 0 0 0 0 0 0.15 0"/>
<feBlend mode="normal" in2="BackgroundImageFix" result="effect1_dropShadow_1_364"/>
<feBlend mode="normal" in="SourceGraphic" in2="effect1_dropShadow_1_364" result="shape"/>
</filter>
<clipPath id="clip0_1_364">
<rect width="26" height="26" fill="white" transform="translate(12 9)"/>
</clipPath>
</defs>
</svg>
